<?xml version="1.0" standalone="no"?>
<!DOCTYPE svg PUBLIC "-//W3C//DTD SVG 20010904//EN"
 "http://www.w3.org/TR/2001/REC-SVG-20010904/DTD/svg10.dtd">
<svg version="1.0" xmlns="http://www.w3.org/2000/svg"
 width="639.000000pt" height="639.000000pt" viewBox="0 0 639.000000 639.000000"
 preserveAspectRatio="xMidYMid meet">

<g transform="translate(0.000000,639.000000) scale(0.100000,-0.100000)"
fill="#000000" stroke="none">
<path d="M1791 4476 c-83 -21 -228 -99 -318 -171 -188 -151 -373 -392 -509
-665 -85 -172 -114 -247 -164 -425 -34 -122 -55 -355 -31 -340 6 3 8 -8 5 -27
-8 -52 58 -173 119 -219 102 -76 266 -86 417 -25 65 26 199 111 207 132 3 7 8
12 13 9 10 -6 173 164 233 243 26 34 53 62 59 62 8 0 9 -3 3 -8 -5 -4 -12 -41
-13 -82 -3 -68 -2 -77 20 -97 21 -20 77 -47 83 -41 1 2 10 48 19 103 17 102
62 248 99 320 23 47 57 87 175 208 107 109 186 166 210 151 37 -24 30 -61 -48
-249 -85 -204 -118 -336 -106 -418 6 -36 15 -53 47 -81 35 -33 45 -36 97 -36
86 0 153 43 267 171 33 38 62 68 65 68 3 1 12 -26 19 -60 21 -91 49 -125 141
-171 15 -8 69 -13 141 -13 113 0 116 1 192 38 57 28 97 58 157 119 51 50 79
86 76 95 -3 8 -1 11 4 8 14 -8 170 234 170 263 0 13 19 52 42 85 70 102 75
107 130 107 27 0 69 5 94 11 33 9 48 9 56 1 13 -13 -9 -49 -119 -193 -40 -54
-73 -99 -73 -103 0 -3 -11 -22 -25 -42 -14 -20 -22 -41 -18 -47 3 -5 1 -7 -5
-4 -13 9 -47 -62 -62 -128 -16 -73 -5 -128 34 -170 32 -33 36 -35 102 -35 165
0 332 140 501 420 39 65 50 92 46 113 -3 15 -1 27 5 27 6 0 21 17 33 38 12 20
36 54 52 75 26 34 33 37 78 37 28 0 70 5 95 11 54 14 72 3 54 -31 -7 -13 -62
-90 -122 -172 -140 -191 -178 -268 -178 -361 0 -118 35 -157 140 -157 54 0 78
6 135 34 76 36 179 121 168 138 -3 6 -1 8 5 4 6 -3 27 14 47 39 21 25 40 43
44 41 4 -3 5 -43 3 -90 -4 -74 -1 -90 18 -120 39 -64 119 -71 217 -20 54 29
173 140 210 197 13 22 27 37 29 34 12 -11 -103 -295 -168 -417 -13 -25 -30
-44 -38 -43 -8 1 -46 11 -85 23 -53 17 -105 23 -213 27 -161 6 -222 -5 -325
-60 -65 -34 -171 -141 -163 -164 3 -8 2 -12 -3 -8 -5 3 -14 -9 -19 -27 -21
-69 -23 -109 -8 -162 14 -46 23 -58 68 -89 71 -48 123 -60 248 -60 191 0 317
50 445 178 45 44 94 98 111 120 l31 39 59 -39 c32 -22 82 -56 109 -77 33 -25
61 -38 81 -38 40 0 107 27 99 41 -4 5 -1 8 6 7 56 -13 -98 105 -238 182 -25
14 -43 31 -43 41 0 9 20 57 44 105 60 121 207 474 201 484 -3 5 -1 10 4 12 14
5 71 150 64 162 -3 6 -2 8 2 3 10 -9 78 150 70 164 -4 5 -1 9 5 9 7 0 10 33 9
98 l-1 98 -32 22 c-64 44 -66 42 -134 -165 -62 -187 -112 -291 -194 -403 -48
-66 -159 -180 -191 -196 -15 -8 -26 -18 -23 -22 2 -4 -16 -8 -40 -10 -85 -5
-93 60 -29 233 44 119 84 213 138 327 58 123 60 162 9 211 -21 20 -51 39 -68
43 -29 6 -31 4 -47 -43 -9 -26 -37 -106 -62 -178 -26 -71 -56 -157 -67 -190
-12 -33 -43 -92 -69 -131 -52 -78 -173 -195 -231 -225 -42 -21 -108 -25 -126
-7 -27 27 0 140 45 190 8 9 12 22 7 29 -4 8 -3 10 4 5 6 -4 19 6 29 21 10 15
59 80 109 143 147 186 204 274 204 318 0 10 -13 31 -30 47 l-30 28 -86 -42
c-129 -64 -276 -112 -287 -94 -3 5 13 35 35 68 54 79 62 141 25 179 -50 50
-76 29 -159 -134 -40 -78 -46 -112 -27 -154 10 -21 8 -29 -15 -59 -14 -18 -26
-37 -26 -41 0 -4 -20 -39 -45 -77 -25 -38 -45 -79 -45 -90 0 -67 -148 -244
-266 -317 -99 -62 -179 -33 -155 55 6 21 27 65 47 98 20 33 37 65 37 72 0 7 4
10 8 7 4 -2 18 10 30 28 13 18 57 76 99 128 140 175 197 271 186 314 -3 12
-18 31 -34 43 l-29 22 -34 -23 c-38 -26 -248 -112 -296 -122 -17 -3 -33 -2
-37 4 -3 5 12 36 33 68 47 71 55 95 47 139 -5 24 -17 40 -42 56 -37 22 -40 22
-58 -10 -6 -11 -29 -50 -51 -88 -22 -37 -46 -81 -52 -97 -16 -35 -17 -98 -2
-113 12 -12 0 -38 -58 -125 -14 -21 -22 -42 -17 -49 4 -7 3 -10 -3 -6 -11 7
-53 -62 -53 -89 0 -26 -83 -146 -153 -220 -67 -72 -174 -147 -242 -171 -29 -9
-64 -13 -92 -10 -81 9 -150 101 -141 189 2 25 10 33 43 45 160 59 274 131 369
234 76 83 137 189 143 249 5 54 -22 105 -65 121 -42 17 -159 5 -222 -21 -117
-49 -298 -194 -285 -227 2 -8 1 -11 -4 -8 -20 11 -119 -162 -147 -255 -8 -26
-27 -64 -44 -85 -16 -20 -27 -42 -23 -48 3 -5 2 -7 -4 -4 -5 4 -23 -8 -39 -24
-30 -32 -123 -105 -162 -126 -59 -34 -87 -6 -78 75 8 72 44 173 135 380 39 89
76 182 83 205 11 42 10 46 -21 90 -39 57 -66 65 -140 42 -80 -24 -133 -58
-229 -143 -96 -85 -102 -77 -36 39 83 146 266 523 271 558 4 30 0 43 -23 70
-27 33 -78 61 -108 61 -8 0 -17 -14 -21 -32 -12 -57 -124 -315 -237 -548 -61
-124 -130 -272 -155 -330 -53 -127 -90 -192 -160 -288 -30 -40 -51 -77 -48
-82 4 -6 3 -9 -2 -8 -4 1 -64 -54 -133 -123 -114 -115 -134 -130 -223 -174
-92 -46 -102 -49 -181 -49 -76 -1 -86 1 -120 28 -21 15 -46 41 -55 57 -10 16
-20 27 -22 24 -6 -5 -7 7 -15 140 -5 94 -2 127 19 230 93 452 520 1110 817
1260 41 21 74 29 131 33 75 4 75 4 102 -28 15 -17 27 -42 27 -56 0 -38 -39
-141 -86 -230 -24 -45 -40 -85 -36 -88 4 -4 2 -6 -5 -4 -12 3 -103 -99 -103
-114 0 -14 85 -8 107 7 55 38 178 278 196 378 13 78 1 115 -51 155 -33 25 -43
27 -146 29 -67 1 -133 -3 -165 -11z m1643 -838 c9 -12 16 -34 16 -48 0 -60
-112 -218 -212 -299 -65 -53 -203 -127 -257 -137 l-33 -7 7 34 c10 48 67 168
109 231 43 64 135 161 187 195 82 54 158 67 183 31z m1550 -1083 c81 -15 127
-33 133 -51 6 -17 -120 -176 -188 -238 -35 -31 -93 -71 -128 -89 -57 -28 -78
-32 -159 -35 -114 -5 -165 11 -216 69 -33 36 -36 44 -36 100 0 68 14 100 62
145 102 97 327 139 532 99z"/>
</g>
</svg>
